<svg width="181" height="34" viewBox="0 0 181 34" fill="none" xmlns="http://www.w3.org/2000/svg">
    <g clip-path="url(#clip0_2417_27945)">
    <path d="M0 26.7461V3.57346C0 2.76646 0.230573 2.19002 0.807006 1.72888C1.38344 1.15244 1.95987 0.921875 2.76688 0.921875H12.5662C15.3331 0.921875 17.4083 1.4983 18.7917 2.76646C20.1752 4.03461 20.8669 5.8792 20.8669 8.30021C20.8669 9.91423 20.521 11.1824 19.8293 12.3352C19.2529 13.3728 18.3306 14.0645 16.9471 14.5257C18.1 14.8716 18.907 15.5633 19.3682 16.3703C19.8293 17.1773 20.0599 18.4454 20.1752 20.1747L20.2904 23.2875V24.2098C20.2904 24.5556 20.2904 24.9015 20.4057 25.1321C20.521 26.0544 20.8669 26.6308 21.328 26.8614H15.4484C15.2178 26.4002 15.1025 25.8238 14.9873 25.2473C14.872 24.4403 14.872 23.8639 14.872 23.6333L14.7567 20.7512C14.6414 19.2524 14.4108 18.2149 13.8344 17.5231C13.258 16.9467 12.3357 16.7161 10.9522 16.7161H5.30318V26.7461H0ZM5.30318 12.22H11.5287C12.9121 12.22 13.8344 11.9894 14.5261 11.413C15.2178 10.8365 15.4484 10.0295 15.4484 8.87665C15.4484 7.72378 15.1025 6.91678 14.5261 6.34034C13.9497 5.76391 13.0274 5.41805 11.8745 5.41805H5.30318V12.22Z" fill="#333333"/>
    <path d="M36.6618 20.6363H40.4662C39.8898 22.7115 38.8522 24.3255 37.3535 25.4783C35.8547 26.6312 33.8949 27.2076 31.4739 27.2076C28.5917 27.2076 26.4012 26.2853 24.7872 24.4408C23.1732 22.5962 22.3662 20.0599 22.3662 16.7166C22.3662 13.4885 23.1732 10.9522 24.6719 9.22293C26.286 7.37835 28.4764 6.45605 31.3586 6.45605C34.356 6.45605 36.6618 7.37835 38.3911 9.10765C40.0051 10.9522 40.8121 13.4885 40.8121 16.8318C40.8121 17.0624 40.8121 17.1777 40.8121 17.4083C40.8121 17.5236 40.8121 17.6388 40.8121 17.7541C40.8121 17.9847 40.8121 18.2153 40.6968 18.3306H27.6694C27.6694 19.8293 28.1305 20.9822 28.8223 21.7892C29.514 22.5962 30.4363 22.942 31.7044 22.942C32.5114 22.942 33.3184 22.7115 33.8949 22.3656C34.0102 22.3656 34.1254 22.2503 34.2407 22.135C34.356 22.0197 34.5866 21.7892 34.7019 21.6739C34.7019 21.5586 34.9325 21.328 35.2783 21.0974C35.6242 20.7516 36.0853 20.6363 36.6618 20.6363ZM27.6694 14.7567H35.3936C35.2783 13.3732 34.9325 12.4509 34.356 11.7592C33.6643 11.0675 32.742 10.7217 31.5891 10.7217C30.4363 10.7217 29.6293 11.0675 28.9376 11.7592C28.1305 12.4509 27.6694 13.3732 27.6694 14.7567Z" fill="#333333"/>
    <path d="M64.0979 26.7444H58.7947L55.682 12.4489L52.5693 26.7444H47.2661L41.9629 6.7998H47.0355L50.1482 20.6342L53.0304 6.7998H58.3336L60.9852 20.6342L63.7521 8.64439C64.0979 7.49152 64.9049 6.7998 66.1731 6.7998H69.5164L64.0979 26.7444Z" fill="#333333"/>
    <path d="M83.0065 16.7166C82.3147 17.0624 81.2772 17.4083 80.1243 17.6388C78.9714 17.8694 78.395 17.9847 78.395 17.9847C77.4727 18.2153 76.8963 18.5611 76.4351 18.907C76.0893 19.4834 75.8587 20.0599 75.8587 20.521C75.8587 21.328 76.0893 21.9045 76.5504 22.3656C77.0116 22.7115 77.7033 22.942 78.5103 22.942C79.8937 22.942 81.0466 22.5962 81.8536 21.7892C82.6606 20.9822 83.0065 19.8293 83.0065 18.4459V16.7166ZM84.1593 25.9395C83.1217 26.5159 81.9689 26.8618 80.816 26.8618C79.6631 26.9771 78.6256 27.0923 77.7033 27.0923C75.8587 27.0923 74.36 26.6312 72.9765 25.7089C71.5931 24.6713 70.9014 23.0573 70.9014 20.8669C70.9014 18.7917 71.4778 17.293 72.746 16.3707C74.0141 15.4484 75.6281 14.872 77.4727 14.5261C77.7033 14.5261 78.0491 14.5261 78.395 14.4108C78.7409 14.2955 79.202 14.1802 79.5479 14.1802C81.7383 13.8344 82.8912 13.258 82.8912 12.2204C82.8912 11.4134 82.5453 10.9522 81.7383 10.8369C80.9313 10.6064 80.2396 10.4911 79.6631 10.4911C78.9714 10.4911 78.2797 10.6064 77.8186 10.8369C77.2421 11.0675 76.8963 11.4134 76.6657 11.9898H71.4778C71.7084 10.4911 72.4001 9.10765 73.553 8.18535C74.9364 7.03249 76.781 6.45605 79.3173 6.45605C82.0842 6.45605 84.2746 6.9172 85.6581 7.83949C87.1568 8.87707 87.8485 10.2605 87.8485 12.1051V18.907C87.8485 20.8669 87.5026 22.4809 86.6956 23.6338C86.0039 24.6713 85.1969 25.4783 84.1593 25.9395Z" fill="#333333"/>
    <path d="M89.001 26.7444V17.0603C89.001 15.1005 89.2316 13.4864 89.808 12.2183C90.3844 10.8348 91.1914 9.79726 92.229 8.99025C93.1513 8.18324 94.3042 7.7221 95.5723 7.37624C96.8405 6.91509 98.1086 6.7998 99.4921 6.7998H99.8379H100.299V12.103H98.5698C97.071 12.103 96.0335 12.4489 95.3417 13.1406C94.65 13.8323 94.3042 14.9852 94.3042 16.4839V26.7444H89.001Z" fill="#333333"/>
    <path d="M114.365 0.804688H116.901C117.593 0.804688 118.169 1.03526 118.745 1.6117C119.207 2.07284 119.552 2.64928 119.552 3.341V17.9824C119.552 21.5563 118.515 23.9773 116.44 25.2455C114.365 26.5136 112.174 27.09 109.753 27.09C108.485 27.09 107.217 26.8595 105.949 26.5136C104.68 26.0525 103.643 25.3607 102.951 24.4384C101.452 22.5939 100.761 20.0576 100.761 16.8295C100.761 13.7168 101.452 11.1805 102.951 9.22061C104.45 7.26074 106.41 6.33845 108.716 6.33845C109.984 6.33845 111.021 6.56902 112.059 7.14546C113.096 7.72189 113.903 8.52889 114.48 9.45119V0.804688H114.365ZM105.833 16.599C105.833 18.5588 106.179 20.1728 106.986 21.2104C107.793 22.248 108.831 22.8244 110.214 22.8244C111.598 22.8244 112.635 22.248 113.327 21.2104C114.019 20.1728 114.365 18.6741 114.365 16.599C114.365 14.7544 114.019 13.3709 113.212 12.3334C112.405 11.2958 111.367 10.8346 109.984 10.8346C108.716 10.8346 107.678 11.4111 106.871 12.4486C106.179 13.3709 105.833 14.7544 105.833 16.599Z" fill="#333333"/>
    <path d="M127.736 16.5973V25.8202H122.433V2.76292C122.433 1.95592 122.663 1.37949 123.24 0.918334C123.816 0.341901 124.392 0.111328 125.199 0.111328H133.961C136.728 0.111328 138.803 0.803048 140.071 2.18649C141.455 3.56993 142.147 5.64509 142.147 8.41197C142.147 11.0636 141.455 13.0234 140.071 14.5221C138.688 15.9056 136.728 16.5973 134.192 16.5973H127.736ZM127.736 11.9858H132.924C134.307 11.9858 135.345 11.64 135.921 11.0636C136.613 10.4871 136.843 9.56483 136.843 8.1814C136.843 7.02853 136.498 6.10624 135.921 5.41452C135.229 4.83808 134.307 4.49222 133.154 4.49222H127.621V11.9858" fill="#2B70C8"/>
    <path d="M155.173 15.7908C154.482 16.1366 153.444 16.4825 152.291 16.7131C151.138 16.9437 150.562 17.0589 150.562 17.0589C149.64 17.2895 149.063 17.6354 148.602 17.9812C148.256 18.5577 148.026 19.1341 148.026 19.5952C148.026 20.4022 148.256 20.9787 148.717 21.4398C149.179 21.7857 149.87 22.0163 150.677 22.0163C152.061 22.0163 153.214 21.6704 154.021 20.8634C154.828 20.0564 155.173 18.9035 155.173 17.5201V15.7908ZM156.326 25.0137C155.289 25.5902 154.136 25.936 152.983 25.936C151.83 26.0513 150.793 26.1666 149.87 26.1666C148.026 26.1666 146.527 25.7054 145.144 24.7831C143.76 23.7456 143.068 22.1315 143.068 19.9411C143.068 17.8659 143.645 16.3672 144.913 15.4449C146.181 14.5226 147.795 13.9462 149.64 13.6003C149.87 13.6003 150.216 13.6003 150.562 13.4851C150.908 13.3698 151.369 13.2545 151.715 13.2545C153.905 12.9086 155.058 12.3322 155.058 11.2946C155.058 10.4876 154.712 10.0265 153.905 9.91117C153.098 9.68059 152.407 9.56531 151.83 9.56531C151.138 9.56531 150.447 9.68059 149.986 9.91117C149.409 10.1417 149.063 10.4876 148.833 11.064H143.76C143.991 9.56531 144.682 8.18187 145.835 7.25957C147.219 6.10671 149.063 5.53027 151.6 5.53027C154.366 5.53027 156.557 5.99142 157.94 6.91371C159.439 7.95129 160.131 9.33473 160.131 11.1793V17.9812C160.131 19.9411 159.785 21.5551 158.978 22.708C158.171 23.7456 157.364 24.5526 156.326 25.0137Z" fill="#2B70C8"/>
    <path d="M164.052 32.9713V28.821H165.436C166.473 28.821 167.165 28.5904 167.741 28.014C168.318 27.5528 168.433 26.8611 168.087 25.7083L161.055 5.76367H166.819L170.854 19.9439L174.428 7.60826C174.774 6.45539 175.581 5.76367 176.849 5.76367H180.423L172.929 28.7057C172.353 30.3197 171.546 31.5879 170.623 32.2796C169.701 32.856 168.202 33.2019 166.243 33.2019H165.666H165.09C164.974 33.2019 164.744 33.0866 164.513 33.0866H164.052" fill="#2B70C8"/>
    </g>
    <defs>
    <clipPath id="clip0_2417_27945">
    <rect width="181" height="33.4331" fill="white"/>
    </clipPath>
    </defs>
</svg>
    